<?xml version="1.0" encoding="UTF-8" standalone="no"?>
<!-- Created with Inkscape (http://www.inkscape.org/) -->

<svg
   width="57.016426mm"
   height="48.861237mm"
   viewBox="0 0 57.016426 48.861237"
   version="1.1"
   id="svg5"
   inkscape:export-filename="krant.png"
   inkscape:export-xdpi="96"
   inkscape:export-ydpi="96"
   xmlns:inkscape="http://www.inkscape.org/namespaces/inkscape"
   xmlns:sodipodi="http://sodipodi.sourceforge.net/DTD/sodipodi-0.dtd"
   xmlns:xlink="http://www.w3.org/1999/xlink"
   xmlns="http://www.w3.org/2000/svg"
   xmlns:svg="http://www.w3.org/2000/svg">
  <sodipodi:namedview
     id="namedview7"
     pagecolor="#ffffff"
     bordercolor="#000000"
     borderopacity="0.25"
     inkscape:showpageshadow="2"
     inkscape:pageopacity="0.0"
     inkscape:pagecheckerboard="0"
     inkscape:deskcolor="#d1d1d1"
     inkscape:document-units="mm"
     showgrid="false" />
  <defs
     id="defs2">
    <symbol
       id="icon-images">
      <title
         id="title81217">images</title>
      <path
         d="M 28.6,8.762 23.444,8.512 23.144,5.15 C 23.081,4.444 22.45,3.95 21.713,4.006 L 3.213,5.525 C 2.476,5.588 1.944,6.181 2.001,6.881 l 1.325,14.737 c 0.063,0.706 0.7,1.2 1.431,1.144 l 0.938,-0.075 -0.15,2.863 c -0.037,0.788 0.575,1.425 1.4,1.469 L 27.582,28 c 0.825,0.038 1.506,-0.538 1.55,-1.325 L 30.001,10.219 C 30.039,9.438 29.42,8.8 28.601,8.763 Z M 6.412,9.094 5.968,17.519 4.88,19.063 3.88,7.938 c 0,-0.013 0,-0.019 0,-0.031 0,-0.012 0,-0.019 0,-0.031 C 3.911,7.563 4.149,7.313 4.474,7.288 L 20.787,5.95 c 0.325,-0.025 0.606,0.188 0.656,0.494 0,0.013 0.019,0.013 0.019,0.025 0,0.006 0.019,0.013 0.019,0.025 L 21.65,8.419 7.962,7.763 C 7.137,7.738 6.449,8.313 6.412,9.094 Z M 27.294,23.9 24.375,20.444 22.656,18.4 c -0.15,-0.181 -0.394,-0.331 -0.663,-0.344 -0.269,-0.013 -0.469,0.094 -0.694,0.256 l -1.025,0.744 c -0.219,0.131 -0.387,0.219 -0.619,0.206 -0.225,-0.012 -0.425,-0.1 -0.569,-0.238 -0.05,-0.05 -0.144,-0.137 -0.219,-0.212 l -2.675,-3.056 c -0.194,-0.244 -0.512,-0.4 -0.863,-0.419 -0.356,-0.019 -0.7,0.131 -0.925,0.35 L 7.66,22.949 7.679,22.524 8.104,14.468 8.31,10.537 c 0,-0.012 0,-0.025 0,-0.031 0,-0.012 0,-0.025 0,-0.031 0.088,-0.338 0.387,-0.581 0.744,-0.563 l 18.2,0.875 c 0.363,0.019 0.644,0.294 0.65,0.637 0,0.012 0.019,0.019 0.019,0.031 0,0.012 0.019,0.019 0.019,0.031 l -0.65,12.413 z"
         id="path81219" />
      <path
         d="m 23.325,16.394 c 1.212,0 2.2,-0.988 2.2,-2.2 0,-1.212 -0.981,-2.2 -2.2,-2.2 -1.212,0 -2.2,0.981 -2.2,2.2 0,1.219 0.981,2.2 2.2,2.2 z"
         id="path81221" />
    </symbol>
  </defs>
  <g
     inkscape:label="Layer 1"
     inkscape:groupmode="layer"
     id="layer1"
     transform="translate(-122.67189,-200.41603)">
    <use
       xlink:href="#icon-images"
       style="fill:#000000;stroke:none"
       id="use99957"
       transform="matrix(2.035876,0,0,2.035876,118.60661,192.26911)"
       inkscape:export-filename=".\image_stack.svg"
       inkscape:export-xdpi="113.08342"
       inkscape:export-ydpi="113.08342" />
  </g>
</svg>
